<?xml version="1.0" encoding="utf-8"?>
<!-- Generator: Adobe Illustrator 16.0.5, SVG Export Plug-In . SVG Version: 6.00 Build 0)  -->
<!DOCTYPE svg PUBLIC "-//W3C//DTD SVG 1.1//EN" "http://www.w3.org/Graphics/SVG/1.1/DTD/svg11.dtd">
<svg version="1.1" id="Capa_1" xmlns="http://www.w3.org/2000/svg" xmlns:xlink="http://www.w3.org/1999/xlink" x="0px" y="0px"
	 width="80px" height="80px" viewBox="216 432 80 80" enable-background="new 216 432 80 80" xml:space="preserve">
<g>
	<g>
		<path fill="#FFFFFF" d="M256,466c-3.314,0-6,2.688-6,6c0,3.314,2.686,6,6,6c3.312,0,6-2.686,6-6C262,468.688,259.312,466,256,466z
			 M272,460h-4.8c-0.66,0-1.372-0.512-1.58-1.139l-1.241-3.723C264.17,454.512,263.46,454,262.8,454h-13.6
			c-0.66,0-1.371,0.512-1.58,1.139l-1.24,3.723c-0.209,0.627-0.92,1.139-1.58,1.139H240c-2.2,0-4,1.8-4,4v18c0,2.2,1.8,4,4,4h32
			c2.2,0,4-1.8,4-4v-18C276,461.8,274.2,460,272,460z M256,482c-5.522,0-10-4.477-10-10c0-5.522,4.478-10,10-10
			c5.521,0,10,4.478,10,10C266,477.523,261.521,482,256,482z M270.6,466.797c-0.772,0-1.399-0.626-1.399-1.4
			c0-0.771,0.627-1.399,1.399-1.399c0.773,0,1.4,0.628,1.4,1.399C272,466.171,271.373,466.797,270.6,466.797z"/>
	</g>
</g>
</svg>
