<svg width="104" height="51" viewBox="0 0 104 51" version="1.1" xmlns="http://www.w3.org/2000/svg" xmlns:xlink="http://www.w3.org/1999/xlink">
<title>Group</title>
<desc>Created using Figma</desc>
<g id="Canvas" transform="translate(-676 323)">
<g id="Group">
<g id="Carl">
<use xlink:href="#path0_fill" transform="translate(718 -317)" fill="#1E88E5"/>
</g>
<g id="Group">
<g id="Vector">
<use xlink:href="#path1_fill" transform="translate(693.92 -289.706)" fill="#1E88E5"/>
</g>
<g id="Vector">
<use xlink:href="#path2_fill" transform="translate(700.071 -296.306)" fill="#1E88E5"/>
</g>
<g id="Group">
<g id="Vector">
<use xlink:href="#path3_fill" transform="translate(676 -323)" fill="#1E88E5"/>
</g>
</g>
</g>
</g>
</g>
<defs>
<path id="path0_fill" d="M 18.688 15.608C 17.92 14.6907 17.0133 13.976 15.968 13.464C 14.944 12.9307 13.9093 12.664 12.864 12.664C 11.6053 12.664 10.4533 12.9733 9.408 13.592C 8.36267 14.2107 7.54133 15.0533 6.944 16.12C 6.34667 17.1867 6.048 18.3707 6.048 19.672C 6.048 20.9733 6.34667 22.168 6.944 23.256C 7.54133 24.3227 8.36267 25.176 9.408 25.816C 10.4533 26.4347 11.6053 26.744 12.864 26.744C 13.8667 26.744 14.88 26.5093 15.904 26.04C 16.9493 25.5493 17.8773 24.8987 18.688 24.088L 21.664 27.32C 20.4693 28.5573 19.0613 29.5387 17.44 30.264C 15.84 30.9893 14.2293 31.352 12.608 31.352C 10.4107 31.352 8.416 30.8507 6.624 29.848C 4.832 28.824 3.424 27.4267 2.4 25.656C 1.376 23.8853 0.864 21.912 0.864 19.736C 0.864 17.5813 1.38667 15.6293 2.432 13.88C 3.47733 12.1307 4.90667 10.7547 6.72 9.752C 8.55467 8.74933 10.5813 8.248 12.8 8.248C 14.4213 8.248 16.0213 8.58933 17.6 9.272C 19.1787 9.93333 20.5227 10.84 21.632 11.992L 18.688 15.608ZM 34.4458 31L 34.4458 28.984C 33.8698 29.7093 33.1231 30.264 32.2058 30.648C 31.2884 31.032 30.2324 31.224 29.0377 31.224C 27.2244 31.224 25.7844 30.7333 24.7177 29.752C 23.6511 28.7493 23.1178 27.448 23.1178 25.848C 23.1178 24.2267 23.6831 22.968 24.8137 22.072C 25.9657 21.1547 27.5871 20.6853 29.6777 20.664L 34.4138 20.664L 34.4138 20.344C 34.4138 19.4267 34.1044 18.7227 33.4857 18.232C 32.8884 17.72 32.0031 17.464 30.8298 17.464C 29.2297 17.464 27.5231 17.9653 25.7097 18.968L 24.1737 15.576C 25.5391 14.8933 26.8191 14.392 28.0138 14.072C 29.2084 13.752 30.5204 13.592 31.9498 13.592C 34.2538 13.592 36.0351 14.136 37.2938 15.224C 38.5738 16.312 39.2244 17.8267 39.2458 19.768L 39.2777 31L 34.4458 31ZM 30.4138 27.704C 31.4378 27.704 32.3231 27.4587 33.0697 26.968C 33.8164 26.4773 34.2644 25.8587 34.4138 25.112L 34.4138 23.576L 30.5418 23.576C 29.5817 23.576 28.8671 23.736 28.3978 24.056C 27.9498 24.3547 27.7257 24.8453 27.7257 25.528C 27.7257 26.1893 27.9604 26.7227 28.4297 27.128C 28.9204 27.512 29.5817 27.704 30.4138 27.704ZM 48.4522 16.888C 49.0496 15.8213 49.8282 15.0107 50.7882 14.456C 51.7482 13.9013 52.8683 13.6133 54.1483 13.592L 54.1483 18.232C 53.9776 18.2107 53.7216 18.2 53.3803 18.2C 51.8656 18.2 50.6603 18.616 49.7643 19.448C 48.8896 20.2587 48.4522 21.3467 48.4522 22.712L 48.4522 31L 43.5243 31L 43.5243 13.784L 48.4522 13.784L 48.4522 16.888ZM 56.9967 7.256L 61.9248 7.256L 61.9248 31L 56.9967 31L 56.9967 7.256Z"/>
<path id="path1_fill" d="M 3.38718 0.567296C 3.38718 1.18735 2.88171 1.69168 2.26153 1.69168C 1.64134 1.69168 1.13587 1.18735 1.13587 0.567296L 1.13587 -5.88625e-07L 3.98638e-07 -5.88625e-07L 3.98638e-07 0.567296C 3.98638e-07 1.81308 1.01434 2.82627 2.26153 2.82627C 3.50872 2.82627 4.52305 1.81308 4.52305 0.567296L 4.52305 -5.88625e-07L 3.38718 -5.88625e-07L 3.38718 0.567296Z"/>
<path id="path2_fill" d="M 2.40976 -2.59688e-07C 1.08079 -2.59688e-07 8.14607e-07 1.07956 8.14607e-07 2.40704L 1.13588 2.40704C 1.13588 1.70529 1.70722 1.13459 2.40976 1.13459C 3.1123 1.13459 3.68421 1.70529 3.68421 2.40704L 4.82008 2.40704C 4.82008 1.07956 3.73873 -2.59688e-07 2.40976 -2.59688e-07Z"/>
<path id="path3_fill" d="M 32.105 15.8299C 32.105 15.194 32.0414 14.5688 31.9431 13.9521C 32.8143 12.8329 33.3874 11.6143 33.3084 10.3759C 33.2272 9.10857 32.4798 7.99894 31.0827 7.06858C 31.106 7.00901 31.1236 6.94037 31.1332 6.86265C 31.2315 6.04744 30.0666 3.17352 29.0671 2.43547C 22.3217 -2.54483 9.27958 0.715991 4.46801 6.78379C -2.01101 14.9546 0.0364001 28.3961 1.53178 38.2097L 1.67831 39.1713C 2.21842 42.7419 4.06194 46.2665 5.67999 48.7802L 6.08834 49.1568C 6.46659 49.7894 6.87266 50.4032 7.33099 50.9841L 7.3395 51C 7.3395 51 7.33723 50.983 7.33666 50.9818C 6.80508 47.3092 7.15152 43.7188 8.31124 40.0449C 8.86612 46.1003 13.9741 50.861 20.1806 50.861C 26.7556 50.861 32.105 45.5188 32.105 38.9529L 32.105 31.232C 32.6735 30.351 33.0074 29.3049 33.0074 28.1811C 33.0074 27.0573 32.6735 26.0117 32.105 25.1302L 32.105 15.8299ZM 6.47624 42.4117C 6.47624 42.2999 6.46886 42.1888 6.46999 42.0764C 6.48362 41.4961 6.48817 40.8641 6.52281 40.2792C 6.57108 39.0936 6.6824 37.8943 6.82325 36.7087C 7.11119 34.3328 7.58144 31.9797 8.21697 29.6731C 8.38053 29.0978 8.54467 28.522 8.73038 27.9536C 8.89906 27.3795 9.11658 26.8213 9.30286 26.2528C 9.42894 25.6623 9.5573 25.0695 9.69985 24.4789L 10.1235 22.6925C 9.78504 23.2042 9.4403 23.7182 9.13475 24.252C 8.81444 24.7796 8.53104 25.3259 8.234 25.8699C 8.02728 26.4463 7.82963 27.0261 7.64733 27.6109C 7.45764 28.1936 7.28953 28.7824 7.12198 29.3713C 6.47113 31.7324 5.99009 34.1405 5.69533 36.5725C 5.55164 37.7905 5.43805 39.004 5.3875 40.2378C 5.35172 40.8613 5.34832 41.4411 5.33412 42.0708C 5.33014 42.6851 5.34093 43.3007 5.3699 43.9162C 5.38353 44.2055 5.4017 44.4942 5.42385 44.7836C 5.41988 44.7654 5.41477 44.7473 5.41136 44.7291L 5.10638 43.4385C 4.8917 42.5762 4.78095 41.7309 4.61227 40.8766C 4.49641 40.0132 4.36919 39.148 4.284 38.2801C 4.22664 37.4087 4.11305 36.5413 4.10567 35.6671C 4.07443 34.794 4.04036 33.9215 4.07103 33.0479L 4.09545 31.738L 4.17893 30.431C 4.21528 29.5579 4.33739 28.6922 4.43167 27.8242C 4.51913 26.9551 4.70144 26.1002 4.83093 25.2368C 5.00017 24.3813 5.19157 23.5298 5.38921 22.6806C 5.63512 21.8449 5.82765 20.9917 6.11673 20.1703C 6.40241 19.3477 6.65741 18.5132 7.0101 17.7173L 7.50534 16.5101C 7.6814 16.1124 7.91312 15.742 8.07612 15.3381C 8.35498 14.5053 8.74515 13.7258 9.09784 12.9163C 9.26367 12.5044 9.48176 12.1243 9.68679 11.7323L 10.299 10.5461C 9.72654 11.22 9.09841 11.873 8.57647 12.6008C 8.0534 13.3276 7.50875 14.0526 7.05894 14.8337C 6.83518 15.2246 6.67615 15.6472 6.46829 16.046L 5.95658 17.2924C 5.5931 18.1155 5.32957 18.9733 5.03538 19.8208C 4.73835 20.6678 4.53901 21.5431 4.28684 22.4032C 4.08352 23.2751 3.88701 24.1499 3.71323 25.0275C 3.57976 25.9119 3.39348 26.7901 3.30374 27.6807C 3.20663 28.5702 3.08338 29.4569 3.04476 30.3515L 2.959 31.6904L 2.93402 33.0315C 2.90335 33.9261 2.93742 34.8196 2.9698 35.7136C 2.97832 36.6088 3.09304 37.4983 3.15267 38.3907C 3.24013 39.2814 3.37019 40.1663 3.49003 41.0547C 3.66211 41.9346 3.78762 42.8451 4.0006 43.6989L 4.21869 44.6208C 3.4923 42.8962 3.09531 40.9441 2.80112 39.0023L 2.65516 38.0395C 1.19102 28.4312 -0.813234 15.2722 5.35911 7.48838C 8.30102 3.77826 14.7846 1.15338 20.615 1.15338C 23.8739 1.15338 28.3867 1.90618 29.7094 5.37406C 29.7628 5.51418 30.0144 7.73572 29.7446 7.59219C 31.2888 8.4142 32.1067 9.3752 32.1748 10.448C 32.2799 12.0823 30.6317 14.2296 27.6552 16.3399C 26.3086 17.2947 24.8927 18.1796 23.5234 19.0357C 20.0318 21.2192 16.4208 23.4759 13.7396 27.0351C 10.2985 31.6041 7.80919 36.9169 6.47624 42.4117ZM 30.9691 15.8299L 30.9691 23.8418C 29.9871 23.0226 28.724 22.528 27.3474 22.528C 24.9473 22.528 22.8964 24.0302 22.0752 26.1405L 18.2865 26.1405C 18.0837 25.6192 17.8066 25.1358 17.4658 24.7024C 19.4803 22.9143 21.756 21.4785 24.126 19.9973C 25.5095 19.1327 26.9396 18.2386 28.3134 17.2652C 29.1863 16.6462 30.1149 15.9082 30.9333 15.0907C 30.9498 15.3364 30.9691 15.5814 30.9691 15.8299ZM 15.1725 27.0765C 15.6161 26.5376 16.0766 26.0236 16.5605 25.5448C 17.1114 26.2818 17.442 27.1928 17.442 28.1811C 17.442 30.6199 15.4559 32.6037 13.0143 32.6037C 12.527 32.6037 12.0596 32.5215 11.6206 32.3757C 12.4714 30.8496 13.4215 29.3781 14.4609 27.9746C 14.8709 28.1862 15.1543 28.6088 15.1543 29.1012L 16.2902 29.1012C 16.2902 28.2497 15.8421 27.5043 15.1725 27.0765ZM 30.9691 38.9529C 30.9691 44.8936 26.1297 49.7264 20.1806 49.7264C 14.2314 49.7264 9.39203 44.8931 9.39203 38.9529L 9.39203 37.0445C 9.88216 35.8299 10.4285 34.6358 11.0334 33.47C 11.6507 33.7014 12.3163 33.8342 13.0138 33.8342C 16.1346 33.8342 18.6738 31.2978 18.6738 28.1805C 18.6738 27.9048 18.6471 27.6365 18.6091 27.371L 21.7526 27.371C 21.714 27.6359 21.6879 27.9048 21.6879 28.1805C 21.6879 31.2978 24.2271 33.8342 27.3479 33.8342C 28.7246 33.8342 29.9871 33.3395 30.9697 32.5203L 30.9697 38.9529L 30.9691 38.9529ZM 27.3474 32.6037C 24.9058 32.6037 22.9197 30.6199 22.9197 28.1811C 22.9197 25.7428 24.9058 23.759 27.3474 23.759C 29.7889 23.759 31.775 25.7428 31.775 28.1811C 31.775 30.6199 29.7889 32.6037 27.3474 32.6037Z"/>
</defs>
</svg>
