<?xml version="1.0" encoding="utf-8"?>
<!-- Generator: Adobe Illustrator 16.0.5, SVG Export Plug-In . SVG Version: 6.00 Build 0)  -->
<!DOCTYPE svg PUBLIC "-//W3C//DTD SVG 1.1//EN" "http://www.w3.org/Graphics/SVG/1.1/DTD/svg11.dtd">
<svg version="1.1" id="Layer_1" xmlns="http://www.w3.org/2000/svg" xmlns:xlink="http://www.w3.org/1999/xlink" x="0px" y="0px"
	 width="150px" height="150px" viewBox="0 0 150 150" enable-background="new 0 0 150 150" xml:space="preserve">
<g>
	<path fill="#E91E63" d="M75,6c38.047,0,69,30.953,69,69s-30.953,69-69,69S6,113.047,6,75S36.953,6,75,6 M75,0
		C33.579,0,0,33.579,0,75c0,41.421,33.579,75,75,75c41.421,0,75-33.579,75-75C150,33.579,116.421,0,75,0L75,0z"/>
</g>
<g>
	<path fill="#E91E63" d="M69.174,83.152V39.964c0-3.207,2.673-5.88,5.88-5.88s5.772,2.673,5.772,5.88v43.188
		c0,3.314-2.565,5.88-5.772,5.88S69.174,86.467,69.174,83.152z"/>
	<path fill="#E91E63" d="M75.054,111.916c-3.207,0-5.88-2.565-5.88-5.88v-2.138c0-3.207,2.673-5.88,5.88-5.88
		s5.772,2.673,5.772,5.88v2.138C80.826,109.351,78.261,111.916,75.054,111.916z"/>
</g>
</svg>
